<?xml version="1.0" encoding="utf-8"?>
<!-- Svg Vector Icons : http://www.onlinewebfonts.com/icon -->
<!DOCTYPE svg PUBLIC "-//W3C//DTD SVG 1.1//EN" "http://www.w3.org/Graphics/SVG/1.1/DTD/svg11.dtd">
<svg version="1.1" xmlns="http://www.w3.org/2000/svg" xmlns:xlink="http://www.w3.org/1999/xlink" x="0px" y="0px" viewBox="0 0 1000 1000" enable-background="new 0 0 1000 1000" xml:space="preserve">
<metadata> Svg Vector Icons : http://www.onlinewebfonts.com/icon </metadata>
<g><path d="M500,990C229.4,990,10,770.6,10,500C10,229.4,229.4,10,500,10c270.6,0,490,219.4,490,490C990,770.6,770.6,990,500,990z M500,86.9c-228.2,0-413.1,185-413.1,413.1S271.8,913.1,500,913.1c228.2,0,413.1-185,413.1-413.1S728.2,86.9,500,86.9z M715,543.4H543.4V715c0,25-19.4,45.3-43.4,45.3c-24,0-43.4-20.3-43.4-45.3V543.4H285c-25,0-45.3-19.4-45.3-43.4s20.3-43.4,45.3-43.4h171.7V285c0-25,19.4-45.3,43.4-45.3c23.9,0,43.4,20.3,43.4,45.3v171.7H715c25,0,45.3,19.4,45.3,43.4S740,543.4,715,543.4z"/></g>
</svg>